<?xml version="1.0" encoding="UTF-8"?>
<svg version="1.1" xmlns="http://www.w3.org/2000/svg" width="20" height="20">
<path d="M0 0 C3.3 0 6.6 0 10 0 C10 0.99 10 1.98 10 3 C12.475 3.495 12.475 3.495 15 4 C15.38095238 14.8994709 15.38095238 14.8994709 13 19 C10.41879934 20.29060033 8.50580171 20.13272333 5.625 20.125 C4.66851562 20.12757812 3.71203125 20.13015625 2.7265625 20.1328125 C0.29340753 20.01429206 -1.71251785 19.82516479 -4 19 C-5.50156874 15.99686252 -5.09281204 13.20932478 -5.0625 9.875 C-5.05347656 8.59367188 -5.04445313 7.31234375 -5.03515625 5.9921875 C-5.02355469 5.00476563 -5.01195312 4.01734375 -5 3 C-4.01 2.67 -3.02 2.34 -2 2 C-1.34 2.33 -0.68 2.66 0 3 C0 2.01 0 1.02 0 0 Z " fill="#C69756" transform="translate(5,0)"/>
<path d="M0 0 C0.66 0 1.32 0 2 0 C2.33 0.66 2.66 1.32 3 2 C4.66611905 2.042721 6.33382885 2.04063832 8 2 C8.33 1.67 8.66 1.34 9 1 C10.66617115 0.95936168 12.33388095 0.957279 14 1 C14 1.66 14 2.32 14 3 C15.32 3 16.64 3 18 3 C18.1875 5.375 18.1875 5.375 18 8 C14.64119635 10.23920243 13.48423396 10.24603334 9.5625 10.1875 C8.61503906 10.18105469 7.66757813 10.17460937 6.69140625 10.16796875 C4.3139406 10.01959281 2.27620963 9.67263878 0 9 C-1.125 2.25 -1.125 2.25 0 0 Z " fill="#4E58F3" transform="translate(1,10)"/>
<path d="M0 0 C3.3 0 6.6 0 10 0 C10 0.99 10 1.98 10 3 C11.65 3.33 13.3 3.66 15 4 C15 7.3 15 10.6 15 14 C13.68 13.67 12.36 13.34 11 13 C11 12.01 11 11.02 11 10 C10.34 10 9.68 10 9 10 C9 9.01 9 8.02 9 7 C8.34 7 7.68 7 7 7 C7 5.68 7 4.36 7 3 C4.69 3 2.38 3 0 3 C0 2.01 0 1.02 0 0 Z " fill="#F9994E" transform="translate(5,0)"/>
<path d="M0 0 C0.66 0 1.32 0 2 0 C2.33 0.66 2.66 1.32 3 2 C4.66611905 2.042721 6.33382885 2.04063832 8 2 C8.33 1.67 8.66 1.34 9 1 C10.66617115 0.95936168 12.33388095 0.957279 14 1 C14 1.66 14 2.32 14 3 C15.32 3 16.64 3 18 3 C18.1875 5.375 18.1875 5.375 18 8 C15 10 15 10 11 10 C11 9.01 11 8.02 11 7 C12.32 7 13.64 7 15 7 C15.33 6.01 15.66 5.02 16 4 C11.05 4.33 6.1 4.66 1 5 C1.33 6.32 1.66 7.64 2 9 C1.34 9 0.68 9 0 9 C-1.125 2.25 -1.125 2.25 0 0 Z " fill="#5C5FCF" transform="translate(1,10)"/>
<path d="M0 0 C3.3 0 6.6 0 10 0 C10 1.32 10 2.64 10 4 C10.66 4 11.32 4 12 4 C12 4.99 12 5.98 12 7 C10.68 7 9.36 7 8 7 C7.34 6.01 6.68 5.02 6 4 C2.93443402 3.26656572 2.93443402 3.26656572 0 3 C0 2.01 0 1.02 0 0 Z " fill="#FEC656" transform="translate(2,3)"/>
<path d="M0 0 C3.3 0 6.6 0 10 0 C10.33 1.98 10.66 3.96 11 6 C9.68 6 8.36 6 7 6 C7 5.01 7 4.02 7 3 C4.69 3 2.38 3 0 3 C0 2.01 0 1.02 0 0 Z " fill="#A7456B" transform="translate(5,0)"/>
<path d="M0 0 C0.66 0.33 1.32 0.66 2 1 C1.67 1.99 1.34 2.98 1 4 C1.99 4.33 2.98 4.66 4 5 C3.01 6.485 3.01 6.485 2 8 C1.34 8 0.68 8 0 8 C-0.33 8.66 -0.66 9.32 -1 10 C-1.02689216 8.52093108 -1.04634621 7.04172517 -1.0625 5.5625 C-1.07410156 4.73878906 -1.08570312 3.91507812 -1.09765625 3.06640625 C-1 1 -1 1 0 0 Z " fill="#F19664" transform="translate(1,2)"/>
<path d="M0 0 C0.66 0 1.32 0 2 0 C2.33 0.66 2.66 1.32 3 2 C5.01669827 3.13350534 5.01669827 3.13350534 7 4 C5.02 4.33 3.04 4.66 1 5 C1.33 6.32 1.66 7.64 2 9 C1.34 9 0.68 9 0 9 C-1.125 2.25 -1.125 2.25 0 0 Z " fill="#8769BD" transform="translate(1,10)"/>
<path d="M0 0 C0.99 0 1.98 0 3 0 C3 2.31 3 4.62 3 7 C2.01 6.67 1.02 6.34 0 6 C0 4.02 0 2.04 0 0 Z " fill="#CA3A43" transform="translate(17,7)"/>
<path d="M0 0 C-0.33 0.99 -0.66 1.98 -1 3 C-2.98 3.33 -4.96 3.66 -7 4 C-7 3.01 -7 2.02 -7 1 C-2.25 0 -2.25 0 0 0 Z " fill="#B5437A" transform="translate(19,16)"/>
</svg>
