<?xml version="1.0" encoding="UTF-8"?>
<svg version="1.1" xmlns="http://www.w3.org/2000/svg" width="20" height="20">
<path d="M0 0 C3.3125 -0.3125 3.3125 -0.3125 7 0 C10.24151826 3.03238805 10.23366505 6.33375833 10.375 10.5625 C10.40131776 13.72501784 10.25456497 15.53473356 8.73046875 18.3203125 C7 20 7 20 5.02734375 20.42578125 C-0.77777778 20.11111111 -0.77777778 20.11111111 -3 19 C-4.41904116 14.45906828 -4.09226843 9.7056901 -4 5 C-2.68 4.34 -1.36 3.68 0 3 C0 2.01 0 1.02 0 0 Z " fill="#42487E" transform="translate(7,0)"/>
<path d="M0 0 C3.3 0 6.6 0 10 0 C9.67 2.97 9.34 5.94 9 9 C7.68 9 6.36 9 5 9 C4.67 8.01 4.34 7.02 4 6 C1.98491642 5.26676204 1.98491642 5.26676204 0 5 C0 3.35 0 1.7 0 0 Z " fill="#BFD5FD" transform="translate(5,5)"/>
<path d="M0 0 C0.33 1.32 0.66 2.64 1 4 C2.65 4.33 4.3 4.66 6 5 C6 6.65 6 8.3 6 10 C4.68 10 3.36 10 2 10 C-0.4294516 6.3558226 -0.16179575 4.28758728 0 0 Z " fill="#6F8DC6" transform="translate(4,6)"/>
<path d="M0 0 C1.65 0 3.3 0 5 0 C5 0.99 5 1.98 5 3 C5.99 3 6.98 3 8 3 C8 5.31 8 7.62 8 10 C7.34 10 6.68 10 6 10 C6.33 8.02 6.66 6.04 7 4 C4.03 4 1.06 4 -2 4 C-1.34 3.67 -0.68 3.34 0 3 C0 2.01 0 1.02 0 0 Z " fill="#858BBD" transform="translate(8,1)"/>
<path d="M0 0 C2.64 0 5.28 0 8 0 C8 1.65 8 3.3 8 5 C6.68 5 5.36 5 4 5 C3.67 4.01 3.34 3.02 3 2 C2.01 1.34 1.02 0.68 0 0 Z " fill="#A0BCF8" transform="translate(6,9)"/>
<path d="M0 0 C0.33 0 0.66 0 1 0 C1 1.98 1 3.96 1 6 C0.01 6.495 0.01 6.495 -1 7 C-1.99 6.34 -2.98 5.68 -4 5 C-4 4.34 -4 3.68 -4 3 C-2.68 3 -1.36 3 0 3 C0 2.01 0 1.02 0 0 Z " fill="#7468C1" transform="translate(14,11)"/>
<path d="M0 0 C2.97 0 5.94 0 9 0 C9 0.99 9 1.98 9 3 C4.545 2.01 4.545 2.01 0 1 C0 0.67 0 0.34 0 0 Z " fill="#D4E9FC" transform="translate(6,5)"/>
<path d="M0 0 C1 4 1 4 1 4 Z " fill="#0163FA" transform="translate(19,6)"/>
<path d="" fill="#0163FA" transform="translate(0,0)"/>
<path d="" fill="#0063FC" transform="translate(0,0)"/>
</svg>
